<?xml version="1.0" encoding="UTF-8"?>
<svg width="48px" height="48px" viewBox="0 0 48 48" version="1.1" xmlns="http://www.w3.org/2000/svg" xmlns:xlink="http://www.w3.org/1999/xlink">
    <!-- Generator: Sketch 51 (57462) - http://www.bohemiancoding.com/sketch -->
    <title>Shape</title>
    <desc>Created with Sketch.</desc>
    <defs></defs>
    <g id="v1.0.0" stroke="none" stroke-width="1" fill="none" fill-rule="evenodd">
        <g id="账单详情-支付成功" transform="translate(-164.000000, -114.000000)">
            <rect fill="#FFFFFF" x="0" y="0" width="375" height="667"></rect>
            <g id="支付成功-2" transform="translate(164.000000, 114.000000)" fill="#1AAD19" fill-rule="nonzero">
                <path d="M18.3051591,30.2287031 C15.4348893,31.9625209 15.0092949,29.2555873 15.0092949,29.2555873 L11.4120639,20.1624376 C10.0279237,15.8413128 12.6098629,18.2146723 12.6098629,18.2146723 C12.6098629,18.2146723 14.8252541,20.0305417 16.506927,21.1363202 C18.1878331,22.2428655 20.1033912,21.461459 20.1033912,21.461459 L43.622273,9.70278489 C39.2827441,3.85412129 32.1151214,0.0306734545 23.9996885,0.0306734545 C10.7564185,0.0306734545 0.021471437,10.2073634 0.021471437,22.7612472 C0.021471437,29.9833153 3.57575958,36.4094069 9.11232061,40.574864 L8.11389921,46.792376 C8.11389921,46.792376 7.62695789,48.6074785 9.31399869,47.7654918 C10.4634869,47.1918979 13.39357,45.1337082 15.1381234,43.8829975 C17.9707849,44.9503417 20.97338,45.4956776 24.0004553,45.4925877 C37.2429585,45.4925877 47.9794392,35.3158978 47.9794392,22.7612472 C47.9794392,19.1249075 47.0745719,15.6910127 45.4718832,12.64207 C37.9791217,17.526053 20.550457,28.8752362 18.3051591,30.2287031 Z" id="Shape"></path>
            </g>
        </g>
    </g>
</svg>